<svg width="32" height="32" viewBox="0 0 90 80" fill="none" xmlns="http://www.w3.org/2000/svg">
<path d="M32.5866 1.63879C33.6414 0.589474 35.0717 0 36.5632 0C38.0546 0 39.485 0.589474 40.5397 1.63879L44.1788 5.2546C44.7069 5.78011 45.0036 6.49285 45.0036 7.23602C45.0036 7.9792 44.7069 8.69194 44.1788 9.21744C43.6507 9.74295 42.9345 10.0382 42.1877 10.0382C41.4409 10.0382 40.7247 9.74295 40.1966 9.21744L36.5632 5.59603L11.2527 30.7836V66.0069C11.2527 66.7492 11.549 67.461 12.0764 67.9858C12.6038 68.5107 13.3191 68.8055 14.0649 68.8055C14.8108 68.8055 15.5261 69.1004 16.0535 69.6252C16.5809 70.1501 16.8772 70.8619 16.8772 71.6042C16.8772 72.3464 16.5809 73.0582 16.0535 73.5831C15.5261 74.1079 14.8108 74.4028 14.0649 74.4028C11.8274 74.4028 9.68141 73.5182 8.0992 71.9437C6.51699 70.3692 5.62811 68.2336 5.62811 66.0069V36.3808L4.80692 37.2036C4.27885 37.7291 3.56264 38.0243 2.81583 38.0243C2.06903 38.0243 1.35281 37.7291 0.824738 37.2036C0.296667 36.6781 1.11283e-08 35.9653 0 35.2222C-1.11283e-08 34.479 0.296667 33.7663 0.824738 33.2407L32.5866 1.63879ZM49.4603 7.23602C50.515 6.1867 51.9454 5.59723 53.4368 5.59723C54.9283 5.59723 56.3586 6.1867 57.4134 7.23602L67.4982 17.2719V10.0346C67.4982 9.2924 67.7945 8.58056 68.3219 8.05572C68.8493 7.53088 69.5646 7.23602 70.3105 7.23602H75.9351C76.6809 7.23602 77.3962 7.53088 77.9236 8.05572C78.451 8.58056 78.7473 9.2924 78.7473 10.0346V28.4663L89.1753 38.838C89.7033 39.3635 90 40.0762 90 40.8194C90 41.5626 89.7033 42.2753 89.1753 42.8008C88.6472 43.3263 87.931 43.6215 87.1842 43.6215C86.4374 43.6215 85.7211 43.3263 85.1931 42.8008L84.3719 41.978V71.6042C84.3719 73.8309 83.483 75.9664 81.9008 77.5409C80.3186 79.1154 78.1726 80 75.9351 80H30.9386C28.701 80 26.5551 79.1154 24.9729 77.5409C23.3907 75.9664 22.5018 73.8309 22.5018 71.6042V41.978L21.6806 42.8008C21.4191 43.061 21.1087 43.2674 20.7671 43.4082C20.4254 43.5491 20.0593 43.6215 19.6895 43.6215C19.3197 43.6215 18.9536 43.5491 18.6119 43.4082C18.2703 43.2674 17.9599 43.061 17.6984 42.8008C17.4369 42.5406 17.2295 42.2317 17.088 41.8917C16.9465 41.5518 16.8737 41.1874 16.8737 40.8194C16.8737 40.4514 16.9465 40.087 17.088 39.7471C17.2295 39.4071 17.4369 39.0982 17.6984 38.838L49.4603 7.23602ZM53.4368 11.1933L28.1263 36.3808V71.6042C28.1263 72.3464 28.4226 73.0582 28.95 73.5831C29.4774 74.1079 30.1928 74.4028 30.9386 74.4028H75.9351C76.6809 74.4028 77.3962 74.1079 77.9236 73.5831C78.451 73.0582 78.7473 72.3464 78.7473 71.6042V36.3808L53.4368 11.1933Z" fill="white"/>
<path d="M50.5621 34.2271C53.7941 34.2271 56.8938 35.5048 59.1792 37.7791C61.4647 40.0534 62.7486 43.1381 62.7486 46.3544C62.7486 49.3583 61.6424 52.1196 59.8238 54.2465L60.33 54.7503H61.8112L71.1854 64.079L68.3731 66.8776L58.9989 57.5489V56.075L58.4927 55.5712C56.2814 57.4496 53.4694 58.4816 50.5621 58.4818C47.33 58.4818 44.2303 57.2041 41.9449 54.9297C39.6595 52.6554 38.3755 49.5708 38.3755 46.3544C38.3755 43.1381 39.6595 40.0534 41.9449 37.7791C44.2303 35.5048 47.33 34.2271 50.5621 34.2271ZM50.5621 37.9586C45.8749 37.9586 42.1252 41.6901 42.1252 46.3544C42.1252 51.0188 45.8749 54.7503 50.5621 54.7503C55.2492 54.7503 58.9989 51.0188 58.9989 46.3544C58.9989 41.6901 55.2492 37.9586 50.5621 37.9586Z" fill="white"/>
</svg>
