<svg width="20" height="20" viewBox="0 0 64 64" fill="none" xmlns="http://www.w3.org/2000/svg">
<path d="M3 5.5H1.2C1.08954 5.5 1 5.41046 1 5.3V1.2C1 1.08954 1.08954 1 1.2 1H21.3C21.4105 1 21.5 1.08954 21.5 1.2V5.3C21.5 5.41046 21.4105 5.5 21.3 5.5H19M3 5.5V31.8C3 31.9105 3.08954 32 3.2 32H5.5M3 5.5H19M19 32V15M19 32H22.5M19 32H5.5M19 5.5V10.5M19 10.5H21.25C22.4926 10.5 23.5 11.5074 23.5 12.75V12.75C23.5 13.9926 22.4926 15 21.25 15H19M19 10.5V15M23.5 32V27.7C23.5 27.5895 23.5895 27.5 23.7 27.5H61C62.1046 27.5 63 28.3954 63 29.5V30C63 31.1046 62.1046 32 61 32H60.5M23.5 32H22.5M23.5 32H60.5M22.5 32L22.8826 34.6784C23.5691 39.4838 26.8757 43.5065 31.4574 45.1101L34 46M60.5 32L60.1174 34.6784C59.4309 39.4838 56.1243 43.5065 51.5426 45.1101L49 46M34 46V52.8204C34 54.268 33.8225 55.7101 33.4714 57.1145V57.1145C33.1581 58.3677 32.7085 59.5829 32.1308 60.7383L31 63M34 46V46C38.5859 47.3103 43.4358 47.3911 48.0627 46.2343L49 46M31 63H52.4017C52.4455 63 52.473 62.9527 52.4513 62.9147L51.7037 61.6064C50.905 60.2088 50.302 58.7081 49.9116 57.1464V57.1464C49.6378 56.0513 49.4701 54.9325 49.4108 53.8053L49 46M31 63H18.0606C18.0291 63 18.0054 62.9714 18.0112 62.9405L18.6078 59.7585C19.188 56.6641 18.784 53.4657 17.4527 50.6128V50.6128C16.4965 48.5639 15.0913 46.7565 13.3414 45.3248L10.5 43L9.45503 42.05C6.64642 39.4967 5.18478 35.7826 5.5 32V32" stroke="#666565" stroke-width="5"/>
</svg>
