<svg width="20" height="20" viewBox="0 0 50 66" fill="none" xmlns="http://www.w3.org/2000/svg">
<path d="M1.5 34.5L1.77508 27.348C1.92412 23.4729 2.67472 19.6445 4 16V16L4.23181 15.4437C5.71777 11.8773 8.11556 8.76457 11.1846 6.41769V6.41769C13.6987 4.49515 16.5975 3.13693 19.6837 2.43551L19.9041 2.38544C23.896 1.47818 28.0575 1.64973 31.9612 2.88248L32.3092 2.99236C34.4237 3.6601 36.4221 4.65092 38.2337 5.92968V5.92968C41.9796 8.57381 44.7821 12.3462 46.232 16.696L46.9301 18.7902C47.6408 20.9224 48.0943 23.1319 48.281 25.3718L48.5 28V34V45C48.5 45.5523 48.0523 46 47.5 46H42.3188C41.5187 46 40.7957 46.4768 40.4805 47.2122L38 53" stroke="black" stroke-width="2" stroke-linecap="round"/>
<path d="M1.5 38V44.3622C1.5 45.5192 2.47867 46.4348 3.63304 46.3578L8.26468 46.049C8.70194 46.0199 9.10723 46.2788 9.26455 46.6878L11.5 52.5L13.0204 55.7941C13.9915 57.8983 15.4707 59.728 17.3247 61.1185L18.0369 61.6526C20.868 63.776 24.4893 64.5479 27.9402 63.7636V63.7636C31.4598 62.9637 34.4357 60.6286 36.0498 57.4004L36.5 56.5" stroke="black" stroke-width="2" stroke-linecap="round"/>
<path d="M14.5 25H7.5" stroke="black" stroke-width="2" stroke-linecap="round"/>
<path d="M35.5 25H42.5" stroke="black" stroke-width="2" stroke-linecap="round"/>
<path d="M15.5 30H7.5" stroke="black" stroke-width="2" stroke-linecap="round"/>
<path d="M16 35H7.5" stroke="black" stroke-width="2" stroke-linecap="round"/>
<path d="M7.5 40H16.5" stroke="black" stroke-width="2" stroke-linecap="round"/>
<path d="M34.5 30H42.5" stroke="black" stroke-width="2" stroke-linecap="round"/>
<path d="M34 35H42.5" stroke="black" stroke-width="2" stroke-linecap="round"/>
<path d="M33 40H42.5" stroke="black" stroke-width="2" stroke-linecap="round"/>
<path d="M27.8854 15.2708C28.5419 16.5838 28.2291 18.1745 27.1243 19.1412C25.908 20.2055 24.092 20.2055 22.8757 19.1412C21.7709 18.1745 21.4581 16.5838 22.1146 15.2708C23.3035 12.8931 26.6965 12.8931 27.8854 15.2708Z" stroke="black" stroke-width="2" stroke-linecap="round"/>
<path d="M32 10.5L31.8742 10.3882C29.1524 7.96876 25.3777 7.11902 21.8817 8.13868V8.13868C17.9802 9.2766 15.0753 12.5484 14.4071 16.5571L14.2947 17.2317C14.0994 18.4037 14.0842 19.5986 14.2496 20.7752L18.3633 50.0278C18.4539 50.6725 18.6386 51.3003 18.9114 51.8914V51.8914C21.2125 56.8771 28.2193 57.0928 30.8226 52.258L30.9256 52.0667C31.3055 51.3612 31.5571 50.5938 31.6687 49.8003L35.7514 20.7678C35.9162 19.5961 35.901 18.4062 35.7065 17.2391V17.2391C35.5692 16.4154 35.3436 15.609 35.0335 14.8337L34.5 13.5" stroke="black" stroke-width="2" stroke-linecap="round"/>
</svg>
